<svg width="29" height="30" viewBox="0 0 29 30" fill="none" xmlns="http://www.w3.org/2000/svg">
<path d="M26.2554 8.64109L24.6237 7.20694V2.47154C24.6374 2.29734 24.6174 2.12198 24.565 1.95656C24.5125 1.79113 24.4288 1.63925 24.3191 1.51052C24.2093 1.3818 24.076 1.27903 23.9275 1.20873C23.779 1.13843 23.6186 1.10213 23.4565 1.10213C23.2943 1.10213 23.1339 1.13843 22.9854 1.20873C22.8369 1.27903 22.7036 1.3818 22.5939 1.51052C22.4841 1.63925 22.4004 1.79113 22.348 1.95656C22.2955 2.12198 22.2755 2.29734 22.2892 2.47154V5.11434L18.0637 1.42524C17.0176 0.503519 15.708 0 14.3569 0C13.0058 0 11.6963 0.503519 10.6502 1.42524L2.45846 8.64109C1.78867 9.2269 1.24875 9.96661 0.878149 10.8062C0.507547 11.6458 0.315625 12.564 0.316409 13.4937V23.6861C0.316409 25.3607 0.933503 26.9666 2.03194 28.1507C3.13037 29.3348 4.62017 30 6.17359 30H22.5486C24.102 30 25.5918 29.3348 26.6902 28.1507C27.7887 26.9666 28.4058 25.3607 28.4058 23.6861V13.4577C28.4006 12.5333 28.205 11.6216 27.8331 10.7887C27.4612 9.9557 26.9223 9.22217 26.2554 8.64109ZM10.851 27.4294V18.6982C10.895 17.7266 11.284 16.8105 11.9375 16.1397C12.5909 15.4688 13.4587 15.0947 14.3611 15.0947C15.2635 15.0947 16.1313 15.4688 16.7847 16.1397C17.4382 16.8105 17.8272 17.7266 17.8712 18.6982V27.4294H10.851ZM26.0713 23.6501C26.0691 24.6517 25.699 25.6116 25.042 26.3198C24.385 27.028 23.4945 27.427 22.5653 27.4294H20.2141V18.6982C20.2141 17.0236 19.597 15.4177 18.4986 14.2336C17.4001 13.0495 15.9103 12.3843 14.3569 12.3843C12.8035 12.3843 11.3137 13.0495 10.2153 14.2336C9.11682 15.4177 8.49973 17.0236 8.49973 18.6982V27.4294H6.15686C5.22625 27.4294 4.33364 27.0315 3.67482 26.323C3.016 25.6145 2.64476 24.6532 2.64255 23.6501V13.4577C2.64199 12.8966 2.75735 12.3424 2.98023 11.8353C3.20312 11.3283 3.52794 10.8811 3.93113 10.5262L12.1228 3.31038C12.7501 2.76261 13.5329 2.46372 14.3402 2.46372C15.1475 2.46372 15.9302 2.76261 16.5575 3.31038L24.7492 10.5262C25.1585 10.8775 25.4897 11.3232 25.7185 11.8304C25.9473 12.3377 26.0678 12.8937 26.0713 13.4577V23.6501Z" fill="white"/>
</svg>
