<svg width="26" height="26" viewBox="0 0 26 26" fill="none" xmlns="http://www.w3.org/2000/svg">
<path d="M23.9977 1.59082H11.406C10.5361 1.59082 9.83203 2.30344 9.83203 3.18219C9.83203 4.06095 10.5361 4.77357 11.406 4.77357H23.9977C24.8677 4.77357 25.5717 4.06095 25.5717 3.18219C25.5717 2.30344 24.8677 1.59082 23.9977 1.59082ZM23.9977 11.1391H11.406C10.5361 11.1391 9.83203 11.8517 9.83203 12.7304C9.83203 13.6092 10.5361 14.3218 11.406 14.3218H23.9977C24.8677 14.3218 25.5717 13.6092 25.5717 12.7304C25.5717 11.8517 24.8677 11.1391 23.9977 11.1391ZM25.5717 22.2787C25.5717 21.3999 24.8677 20.6873 23.9977 20.6873H11.406C10.5361 20.6873 9.83203 21.3999 9.83203 22.2787C9.83203 23.1574 10.5361 23.8701 11.406 23.8701H23.9977C24.8677 23.8701 25.5717 23.1574 25.5717 22.2787Z" fill="white"/>
<path d="M3.5366 6.36549C5.27516 6.36549 6.68454 4.94053 6.68454 3.18275C6.68454 1.42496 5.27516 0 3.5366 0C1.79805 0 0.388672 1.42496 0.388672 3.18275C0.388672 4.94053 1.79805 6.36549 3.5366 6.36549Z" fill="white"/>
<path d="M3.5366 25.4622C5.27516 25.4622 6.68454 24.0372 6.68454 22.2794C6.68454 20.5216 5.27516 19.0967 3.5366 19.0967C1.79805 19.0967 0.388672 20.5216 0.388672 22.2794C0.388672 24.0372 1.79805 25.4622 3.5366 25.4622Z" fill="white"/>
<path d="M3.5366 15.9153C5.27516 15.9153 6.68454 14.4903 6.68454 12.7326C6.68454 10.9748 5.27516 9.5498 3.5366 9.5498C1.79805 9.5498 0.388672 10.9748 0.388672 12.7326C0.388672 14.4903 1.79805 15.9153 3.5366 15.9153Z" fill="white"/>
</svg>
