<svg width="115" height="128" viewBox="0 0 115 128" fill="none" xmlns="http://www.w3.org/2000/svg">
<path d="M16.7889 113.686C27.6159 123.827 41.6439 128.536 54.7609 127.952C82.9319 127.02 106.654 103.84 105.973 73.221C105.751 66.381 104.206 59.891 101.638 53.966C107.613 45.276 114.507 32.972 114.507 22.44C114.506 10.066 104.44 0 92.0669 0C79.6869 0 69.6149 10.066 69.6149 22.439C69.6149 23.188 69.6619 23.948 69.7289 24.713C63.9259 22.769 57.6899 21.798 51.2419 22.008C22.0289 22.969 -0.944138 47.528 0.0298624 76.74C0.495862 90.886 6.44286 104.019 16.7889 113.686ZM92.0669 2.667C102.97 2.667 111.84 11.537 111.84 22.44C111.84 37.414 96.2139 57.188 92.0669 62.17C87.9169 57.189 72.2809 37.423 72.2809 22.44C72.2809 11.537 81.1569 2.667 92.0669 2.667ZM70.1199 27.65C73.2859 44.818 90.2729 64.213 91.0679 65.112C91.3209 65.398 91.6849 65.563 92.0669 65.563C92.4499 65.563 92.8129 65.399 93.0669 65.112C93.3829 64.754 96.2719 61.451 99.8289 56.531C101.895 61.752 103.112 67.397 103.306 73.314C103.501 79.194 102.664 84.872 100.976 90.184C91.5569 92.29 81.9969 87.212 78.4939 78.127C74.7199 68.23 72.3949 57.355 60.8549 54.714C57.8049 54.153 54.6779 54.617 51.8149 54.541C48.4149 54.434 45.4289 51.914 44.7089 48.515C42.6989 39.089 48.8139 31.63 63.3829 25.728C65.6879 26.214 67.9379 26.858 70.1199 27.65ZM51.3349 24.662C53.6399 24.607 55.6669 24.631 58.5759 24.954C45.5699 31.149 40.0069 39.242 42.1089 49.075C43.0819 53.728 47.0419 57.075 51.7349 57.208C54.6169 57.277 57.8109 56.845 60.3079 57.328C70.3069 59.622 72.3629 69.579 76.0139 79.087C79.3739 87.847 87.7069 93.327 96.6929 93.327C97.7819 93.327 98.8799 93.21 99.9819 93.04C93.3219 110.296 77.3879 123.076 58.1329 125.038C59.6379 120.962 59.9919 116.516 59.1369 111.773C58.6949 109.481 54.7299 104.946 56.8339 102.111C61.9649 99.255 63.3479 98.112 63.5209 96.627C63.7919 94.28 60.7109 93.802 59.4389 90.448C61.0139 90.067 64.1999 91.426 65.8929 90.008C66.2669 89.694 66.7239 89.111 66.7779 88.114C67.0009 84.142 60.3799 79.442 54.1169 77.366C48.3179 75.444 43.8299 76.098 41.7999 79.168C39.9979 81.92 41.9009 84.643 42.0639 86.457C41.7869 88.916 40.0109 89.61 38.5589 89.756C35.8189 90.031 32.6449 88.891 30.9329 85.252C28.2489 79.428 35.1119 74.754 36.1389 73.228C37.9179 70.618 37.9349 68.043 36.1819 66.342C34.1739 64.39 30.5699 64.42 27.7529 66.393C13.6309 72.566 7.84286 69.922 3.39886 66.345C7.39686 43.348 27.1069 25.465 51.3349 24.662ZM2.97186 69.376C7.79186 72.836 14.6629 75.052 28.9499 68.777C29.0929 68.714 32.4239 66.409 34.3239 68.252C35.3469 69.246 34.4999 70.865 34.0059 71.618C30.6059 74.941 25.6029 79.919 28.4739 86.284C29.7969 90.443 34.8769 92.81 38.8269 92.407C42.6869 92.018 44.8869 88.996 44.7339 86.399C44.6059 84.134 43.0439 82.137 44.0279 80.632C45.3199 78.679 48.7769 78.404 53.2789 79.895C59.2479 81.874 64.2269 85.985 64.1169 87.963C64.1169 87.963 64.1159 87.968 64.1139 87.975C63.2539 88.177 60.5509 87.43 58.8299 87.851C57.1459 88.232 56.2259 90.075 56.9379 91.659C58.1659 94.366 60.0619 95.576 60.7869 96.387C59.8339 97.536 55.2989 99.777 54.9329 100.216C51.4729 104.333 55.3119 109.121 56.5319 112.359C57.3539 117.026 56.9049 121.359 55.1979 125.254C41.2709 125.859 28.3689 120.871 18.6139 111.739C8.78786 102.553 3.13386 90.086 2.68086 76.647C2.60086 74.183 2.70686 71.757 2.97186 69.376ZM105.523 22.443C105.523 15.021 99.4849 8.984 92.0639 8.984C84.6379 8.984 78.5969 15.022 78.5969 22.443C78.5969 29.869 84.6379 35.909 92.0639 35.909C99.4859 35.909 105.523 29.868 105.523 22.443ZM92.0639 33.242C86.1079 33.242 81.2639 28.397 81.2639 22.442C81.2639 16.491 86.1089 11.649 92.0639 11.649C98.0159 11.649 102.857 16.491 102.857 22.442C102.857 28.397 98.0159 33.242 92.0639 33.242Z" fill="#21A54D"/>
</svg>
