<svg xmlns="http://www.w3.org/2000/svg" viewBox="0 0 256 256" xmlns:v="https://vecta.io/nano"><path d="M128 51c-22.8 0-41.2 18.4-41.2 41.1 0 22.6 18.4 41 41.2 41s41.2-18.4 41.2-41c0-22.7-18.4-41.1-41.2-41.1zm0 15.5c14.2 0 25.7 11.4 25.7 25.6s-11.5 25.6-25.7 25.6-25.7-11.4-25.7-25.6 11.5-25.6 25.7-25.6zm0-41.1c39.8 0 66.9 27 66.9 66.8C194.9 131.8 128 205 128 205S61.1 131.8 61.1 92.1 88.2 25.4 128 25.4zm0 200.1s82.3-88 82.3-133.4S173.5 10 128 10c-45.4 0-82.3 36.7-82.3 82.1 0 45.3 82.3 133.4 82.3 133.4zM25.1 215.2c0 17 48.9 30.8 102.9 30.8s102.9-13.8 102.9-30.8c0-13.7-13.2-25.4-52.8-29.4l-11.8 14.4c37 1.5 49.2 7.7 49.2 15 0 8.5-41.4 16.4-87.4 16.4-46.3 0-87.4-7.9-87.4-16.4 0-7.3 12.2-13.5 49.2-15l-11.8-14.4c-39.7 4-53 15.7-53 29.4z"/></svg>