<svg xmlns="http://www.w3.org/2000/svg" width="29" height="19" fill="#a0a0a0" xmlns:v="https://vecta.io/nano"><path d="M16.278 7.896H.907C.406 7.896 0 8.531 0 9.314v.149c0 .783.406 1.418.907 1.418h15.371c.501 0 .907-.635.907-1.418v-.149c0-.783-.406-1.418-.907-1.418zm10.359 7.459H1.484c-.82 0-1.484.635-1.484 1.418v.149c0 .783.664 1.418 1.484 1.418h25.152c.82 0 1.484-.635 1.484-1.418v-.149c0-.783-.665-1.418-1.484-1.418zm0-14.924H1.484C.664.431 0 1.065 0 1.849v.149c0 .783.664 1.418 1.484 1.418h25.152c.82 0 1.484-.635 1.484-1.418v-.149c0-.783-.665-1.418-1.484-1.418z"/></svg>