<svg width="30" height="30" viewBox="0 0 30 30" fill="none" xmlns="http://www.w3.org/2000/svg">
<path d="M29.9261 15.2818C29.9261 16.6899 28.7996 17.8164 27.3915 17.8164H17.2531V27.3915C17.2531 28.7996 16.1266 29.9261 14.7185 29.9261C13.3104 29.9261 12.1839 28.7996 12.1839 27.3915V17.8164H2.60881C1.2007 17.8164 0.0742188 16.6899 0.0742188 15.2818C0.0742188 13.8737 1.2007 12.7472 2.60881 12.7472H12.1839V2.60881C12.1839 1.2007 13.3104 0.0742188 14.7185 0.0742188C16.1266 0.0742188 17.2531 1.2007 17.2531 2.60881V12.7472H27.3915C28.7996 12.7472 29.9261 13.8737 29.9261 15.2818Z" fill="white"/>
</svg>
