<svg width="27" height="27" viewBox="0 0 27 27" fill="none" xmlns="http://www.w3.org/2000/svg">
<path d="M13.1149 15.1615C16.9879 15.1615 20.0939 11.7554 20.0939 7.60154C20.0939 3.44769 16.9879 0 13.1149 0C9.24191 0 6.13586 3.40615 6.13586 7.56C6.13586 11.7138 9.24191 15.1615 13.1149 15.1615ZM13.1149 1.99385C15.9525 1.99385 18.2533 4.48615 18.2533 7.56C18.2533 10.6338 15.9525 13.1262 13.1149 13.1262C10.2773 13.1262 7.97649 10.6754 7.97649 7.60154C7.97649 4.52769 10.2773 1.99385 13.1149 1.99385ZM0.997459 27H25.309C25.8075 27 26.2293 26.5431 26.2293 26.0031C26.2293 20.7692 22.2797 16.4908 17.448 16.4908H8.85845C4.02682 16.4908 0.0771484 20.7692 0.0771484 26.0031C0.0771484 26.5431 0.498958 27 0.997459 27ZM8.85845 18.4846H17.448C20.9759 18.4846 23.8519 21.3092 24.312 25.0062H1.99446C2.45462 21.3092 5.33059 18.4846 8.85845 18.4846Z" fill="white"/>
</svg>
