<svg width="41" height="40" viewBox="0 0 41 40" fill="none" xmlns="http://www.w3.org/2000/svg">
<path d="M13.0455 36.3636H5.59091C5.09664 36.3636 4.62262 36.1721 4.27312 35.8311C3.92362 35.4901 3.72727 35.0277 3.72727 34.5455V27.2727C3.72727 26.7905 3.53093 26.3281 3.18143 25.9871C2.83193 25.6461 2.3579 25.4545 1.86364 25.4545C1.36937 25.4545 0.895346 25.6461 0.545846 25.9871C0.196347 26.3281 0 26.7905 0 27.2727V34.5455C0 35.9921 0.58904 37.3795 1.63754 38.4024C2.68604 39.4253 4.10811 40 5.59091 40H13.0455C13.5397 40 14.0137 39.8084 14.3632 39.4675C14.7127 39.1265 14.9091 38.664 14.9091 38.1818C14.9091 37.6996 14.7127 37.2371 14.3632 36.8962C14.0137 36.5552 13.5397 36.3636 13.0455 36.3636ZM39.1364 25.4545C38.6421 25.4545 38.1681 25.6461 37.8186 25.9871C37.4691 26.3281 37.2727 26.7905 37.2727 27.2727V34.5455C37.2727 35.0277 37.0764 35.4901 36.7269 35.8311C36.3774 36.1721 35.9034 36.3636 35.4091 36.3636H27.9545C27.4603 36.3636 26.9863 36.5552 26.6368 36.8962C26.2873 37.2371 26.0909 37.6996 26.0909 38.1818C26.0909 38.664 26.2873 39.1265 26.6368 39.4675C26.9863 39.8084 27.4603 40 27.9545 40H35.4091C36.8919 40 38.314 39.4253 39.3625 38.4024C40.411 37.3795 41 35.9921 41 34.5455V27.2727C41 26.7905 40.8037 26.3281 40.4542 25.9871C40.1047 25.6461 39.6306 25.4545 39.1364 25.4545ZM35.4091 0H27.9545C27.4603 0 26.9863 0.191558 26.6368 0.532533C26.2873 0.873508 26.0909 1.33597 26.0909 1.81818C26.0909 2.30039 26.2873 2.76286 26.6368 3.10383C26.9863 3.44481 27.4603 3.63636 27.9545 3.63636H35.4091C35.9034 3.63636 36.3774 3.82792 36.7269 4.1689C37.0764 4.50987 37.2727 4.97233 37.2727 5.45455V12.7273C37.2727 13.2095 37.4691 13.6719 37.8186 14.0129C38.1681 14.3539 38.6421 14.5455 39.1364 14.5455C39.6306 14.5455 40.1047 14.3539 40.4542 14.0129C40.8037 13.6719 41 13.2095 41 12.7273V5.45455C41 4.00791 40.411 2.62053 39.3625 1.5976C38.314 0.574674 36.8919 0 35.4091 0ZM1.86364 14.5455C2.3579 14.5455 2.83193 14.3539 3.18143 14.0129C3.53093 13.6719 3.72727 13.2095 3.72727 12.7273V5.45455C3.72727 4.97233 3.92362 4.50987 4.27312 4.1689C4.62262 3.82792 5.09664 3.63636 5.59091 3.63636H13.0455C13.5397 3.63636 14.0137 3.44481 14.3632 3.10383C14.7127 2.76286 14.9091 2.30039 14.9091 1.81818C14.9091 1.33597 14.7127 0.873508 14.3632 0.532533C14.0137 0.191558 13.5397 0 13.0455 0H5.59091C4.10811 0 2.68604 0.574674 1.63754 1.5976C0.58904 2.62053 0 4.00791 0 5.45455V12.7273C0 13.2095 0.196347 13.6719 0.545846 14.0129C0.895346 14.3539 1.36937 14.5455 1.86364 14.5455ZM16.7727 7.27273H9.31818C8.82391 7.27273 8.34989 7.46429 8.00039 7.80526C7.65089 8.14624 7.45455 8.6087 7.45455 9.09091V16.3636C7.45455 16.8458 7.65089 17.3083 8.00039 17.6493C8.34989 17.9903 8.82391 18.1818 9.31818 18.1818H16.7727C17.267 18.1818 17.741 17.9903 18.0905 17.6493C18.44 17.3083 18.6364 16.8458 18.6364 16.3636V9.09091C18.6364 8.6087 18.44 8.14624 18.0905 7.80526C17.741 7.46429 17.267 7.27273 16.7727 7.27273ZM14.9091 14.5455H11.1818V10.9091H14.9091V14.5455ZM24.2273 18.1818H31.6818C32.1761 18.1818 32.6501 17.9903 32.9996 17.6493C33.3491 17.3083 33.5455 16.8458 33.5455 16.3636V9.09091C33.5455 8.6087 33.3491 8.14624 32.9996 7.80526C32.6501 7.46429 32.1761 7.27273 31.6818 7.27273H24.2273C23.733 7.27273 23.259 7.46429 22.9095 7.80526C22.56 8.14624 22.3636 8.6087 22.3636 9.09091V16.3636C22.3636 16.8458 22.56 17.3083 22.9095 17.6493C23.259 17.9903 23.733 18.1818 24.2273 18.1818ZM26.0909 10.9091H29.8182V14.5455H26.0909V10.9091ZM16.7727 21.8182H9.31818C8.82391 21.8182 8.34989 22.0097 8.00039 22.3507C7.65089 22.6917 7.45455 23.1542 7.45455 23.6364V30.9091C7.45455 31.3913 7.65089 31.8538 8.00039 32.1947C8.34989 32.5357 8.82391 32.7273 9.31818 32.7273H16.7727C17.267 32.7273 17.741 32.5357 18.0905 32.1947C18.44 31.8538 18.6364 31.3913 18.6364 30.9091V23.6364C18.6364 23.1542 18.44 22.6917 18.0905 22.3507C17.741 22.0097 17.267 21.8182 16.7727 21.8182ZM14.9091 29.0909H11.1818V25.4545H14.9091V29.0909ZM24.2273 27.2727C24.7215 27.2727 25.1956 27.0812 25.5451 26.7402C25.8946 26.3992 26.0909 25.9368 26.0909 25.4545C26.5852 25.4545 27.0592 25.263 27.4087 24.922C27.7582 24.581 27.9545 24.1186 27.9545 23.6364C27.9545 23.1542 27.7582 22.6917 27.4087 22.3507C27.0592 22.0097 26.5852 21.8182 26.0909 21.8182H24.2273C23.733 21.8182 23.259 22.0097 22.9095 22.3507C22.56 22.6917 22.3636 23.1542 22.3636 23.6364V25.4545C22.3636 25.9368 22.56 26.3992 22.9095 26.7402C23.259 27.0812 23.733 27.2727 24.2273 27.2727ZM31.6818 21.8182C31.1876 21.8182 30.7135 22.0097 30.364 22.3507C30.0145 22.6917 29.8182 23.1542 29.8182 23.6364V29.0909C29.3239 29.0909 28.8499 29.2825 28.5004 29.6234C28.1509 29.9644 27.9545 30.4269 27.9545 30.9091C27.9545 31.3913 28.1509 31.8538 28.5004 32.1947C28.8499 32.5357 29.3239 32.7273 29.8182 32.7273H31.6818C32.1761 32.7273 32.6501 32.5357 32.9996 32.1947C33.3491 31.8538 33.5455 31.3913 33.5455 30.9091V23.6364C33.5455 23.1542 33.3491 22.6917 32.9996 22.3507C32.6501 22.0097 32.1761 21.8182 31.6818 21.8182ZM24.2273 29.0909C23.8587 29.0909 23.4984 29.1975 23.1919 29.3973C22.8854 29.5971 22.6466 29.8811 22.5055 30.2133C22.3644 30.5455 22.3275 30.9111 22.3994 31.2638C22.4714 31.6165 22.6488 31.9405 22.9095 32.1947C23.1701 32.449 23.5022 32.6222 23.8637 32.6923C24.2252 32.7625 24.5999 32.7265 24.9405 32.5889C25.281 32.4513 25.5721 32.2182 25.7768 31.9192C25.9816 31.6202 26.0909 31.2687 26.0909 30.9091C26.0909 30.4269 25.8946 29.9644 25.5451 29.6234C25.1956 29.2825 24.7215 29.0909 24.2273 29.0909Z" fill="black"/>
</svg>
