<svg width="30" height="27" viewBox="0 0 30 27" fill="none" xmlns="http://www.w3.org/2000/svg">
<path id="Vector" d="M28.9981 0.636481C28.6098 0.318204 28.1412 0.10961 27.6422 0.0328973C27.1432 -0.0438151 26.6324 0.0142245 26.1642 0.20084L1.72594 9.92298C1.20332 10.1349 0.758442 10.4983 0.450366 10.9652C0.14229 11.432 -0.0144175 11.9801 0.00104316 12.5368C0.0165038 13.0934 0.203401 13.6323 0.536929 14.0818C0.870457 14.5313 1.33484 14.8703 1.86845 15.0537L6.81176 16.7478L9.56706 25.7259C9.6045 25.8458 9.65884 25.96 9.72849 26.065C9.73906 26.0811 9.75396 26.0931 9.7652 26.1088C9.84566 26.2194 9.9429 26.3172 10.0535 26.3987C10.085 26.4223 10.1151 26.4445 10.1487 26.4655C10.2782 26.5501 10.4216 26.612 10.5725 26.6484L10.5886 26.6497L10.5978 26.6536C10.6885 26.6718 10.7808 26.681 10.8734 26.6811C10.8823 26.6811 10.8902 26.6769 10.8991 26.6768C11.0388 26.6744 11.1773 26.6507 11.3097 26.6065C11.3404 26.5962 11.3668 26.5789 11.3967 26.5664C11.4954 26.5261 11.5889 26.4744 11.6753 26.4125C11.7445 26.355 11.8137 26.2976 11.8829 26.2402L15.5677 22.2314L21.0637 26.4266C21.5476 26.7977 22.1431 26.9995 22.7563 27C23.3988 26.9992 24.0216 26.7807 24.5201 26.3813C25.0186 25.9818 25.3625 25.4256 25.4943 24.806L29.9436 3.28452C30.0444 2.80014 30.0097 2.29787 29.8431 1.83143C29.6766 1.36499 29.3845 0.951948 28.9981 0.636481ZM11.4142 17.1755C11.2251 17.3611 11.0958 17.5976 11.0426 17.8553L10.6205 19.8762L9.55133 16.3919L15.095 13.5473L11.4142 17.1755ZM22.735 24.3021L16.2403 19.3446C15.9685 19.1377 15.6277 19.0393 15.2856 19.0689C14.9435 19.0986 14.6254 19.2542 14.3945 19.5047L13.2144 20.7882L13.6314 18.7908L23.2903 9.27339C23.5209 9.04652 23.6613 8.7458 23.6863 8.42568C23.7112 8.10557 23.619 7.78724 23.4263 7.52835C23.2336 7.26946 22.9532 7.08714 22.6358 7.01441C22.3184 6.94168 21.9851 6.98335 21.6963 7.13187L7.83417 14.2436L2.75537 12.4122L27.2721 2.7478L22.735 24.3021Z" fill="white"/>
</svg>
